<?xml version="1.0" encoding="UTF-8"?><svg id="Layer_1" xmlns="http://www.w3.org/2000/svg" viewBox="0 0 320 320"><path d="M313.44,168.31c-.45-1.43,0-3.9-1.42-4.89-1.29-.91-2.81-1.01-4.36-1.09-2.17-.11-8.94-.29-10.67.4-.48.19-.92.49-1.11,1-.43,1.21.02,5.45-2.18,4.65-.92-.34-2.75-3.13-3.31-4.06-5.68-9.48-11.06-18.72-22.05-22.87-.54-.2-2.21-.85-2.66-.86-.67-.02-1.46.75-1.58,1.39-.41,2.21,2.9,2.87,4.3,3.62,12.05,6.51,12.54,18.53,19.21,28.87.95,1.47,2.15,2.72,3.09,4.19-2.54,1.06-6.07,2-7.99,4.04-2.19,2.33-3.02,6.13-4.44,8.89-2.07,4.02-5.04,7.28-7.92,10.68-.42.49-.87,1.33-1.22,1.73-.14.16-.13.15-.36.11-.89-2.76-2.09-5.42-3.18-8.11-1.57-3.86-.97-6.9-1.79-10.88-1.41-6.85-4.46-9.67-10.62-12.37-.57-.25-1.22-.17-1.61-.85l1.06-.69c4.72-.73,9.39,1.59,12.08,5.4l.36.11,2.73-6.32c.48,0,1.32.95,1.67,1.32,1.15,1.19,3.2,5.09,4.16,1.54,1.39-5.17.17-11.27-.63-16.47-.38-2.46.17-2.98-1.69-4.98-2.5-2.69-5.39-3.32-8.25-5.08-4.57-2.8-2.01-10.07,3.47-9.26,1.33.2,5.32,1.95,6.69,2.61,1.84.89,3.3,2.03,4.97,3.1.72.46,1.54.74,2.16,1.26-.4-3.52-1.42-6.95-2.63-10.26.26-.33.2-.22.47-.12,1.57.56,6.4,4.43,6.49.97.02-1.01-.61-3.89-.93-4.94-.73-2.37-2.09-4.6-3.03-6.88,3.09.96,6.23,1.89,9.43,2.41,1.75.28,4.21.67,5.93.58,2.19-.12,5.41-1.06,5.33-3.75-.1-3.26-4.09-8.18-6.21-10.65-3.23-3.75-6.93-7.15-10.92-10.03.04-.3-.06-.6-.03-.9.62-6.23,2.48-12.68,3.14-18.98.25-2.45-.18-5.88,1.24-7.85.33-.46,2.06-2.39,2.53-2.4.35,0,4.49,1.75,5.13,2.05,1.67.79,2.67,1.19,3.7,2.79,1.39,2.15,2.92,7.22,4.96,8.56,3.06,2,3.25-3.82,3.33-5.59.14-3.25.18-7.83-.87-10.9-.91-2.65-3.32-4.2-5.09-6.19-2.68-3.02-8.29-10.92-12.1-11.71-3.1-.64-11,1.08-14.44,1.73-1.51.28-3.09.47-4.56.88-4.99,1.38-11.88,8.09-16.02,11.53-1.18.98-2.5,1.83-3.68,2.82-3.87,3.26-7.46,6.85-11.45,9.97-2.95-.73-5.84-1.81-8.82-2.52-4.04-.97-12.72-2.9-16.49-1.57-2.57.9-3.31,2.48-2.47,5.09,1.22,3.78,7.72,9.43,10.85,12.01,1.2.99,3.42,2.27,4.36,3.22.58.58.71,1.24.14,1.88-.12.13-.31.02-.38.07-1.91,1.2-5.72,2.01-8.04,1.86-1.47-.1-2.98-.74-4.47-.27-1.61.51-2.98,1.77-3.83,3.19-1.02,1.68-1.5,3.61-2.42,5.34-.48.1-3.32-1.36-3.9-1.71-3.22-1.9-3.61-4.73-6.07-7.44-.25-.27-1.07-.79-1.23-1.06-.3-.49-.18-1.58-.31-2.14-.83-3.51-3.23-5.26-6.85-4.86-1.11-1.68-2.88-2.97-4.95-3.16-.86-.08-1.71.31-2.45.17-.86-.16-2.21-1.23-3.36-1.38-.94-.12-3.4.03-4.07.73-.08.09.02.39-.14.5-.15.1-.47.06-.64.17-.2.12-.19.45-.57.44-.55-.01-2.34-1.03-3.03-1.29-2.33-.86-4.86-1.84-7.17-.33-2.22,1.45-5.69,10.35-6.01,13.03-.54,4.51,1.37,5.68,5.07,7.35,2.12.95,4.47,1.71,6.65,2.57-.4,3.28.98,6.91.73,10.08-.24,3.01-1.77,6.05-2.72,8.86-1.55,4.6-3.15,8.97-3.93,13.79-.08.48-.15,2.8-.49,2.88-6.22-.05-12.49.42-18.52,1.97-5.21,1.35-10.17,3.69-14.79,6.41-.39-.03-1.73-3.61-2.04-4.24-6.52-13.4-17.85-8.2-27.51-1.59-2.65,1.81-4.76,4.09-7.21,5.96-.18.13-.22.34-.53.26-.22-3.37-.7-6.71-.53-10.1.12-2.41.78-5.01.88-7.36.05-1.15-.45-3.46-.14-4.36.09-.27.39-.34.62-.43,1.42-.55,3.08-.87,4.53-1.44,10.15-3.99,17.64-13.24,19.51-24.01.5-2.9.99-10.96-.93-13.18-1.11-1.28-2.53-.88-3.38.45-1.3,2.04-2,5.43-3.16,7.72-2.61,5.2-8,10.51-13.51,12.46-1.39.49-5.06,1.53-6.41,1.45-.27-.02-.7-.16-.89-.35-1.8-3.79-4.22-6.46-8.21-7.94-4.17-1.55-4.81-.35-3.12,3.56l-1.87-1.2c-.94-.41-1.8-.96-2.79-1.25-1.41-.42-5.84-1.05-6.88.03-1.35,1.42,2.23,3.15,1.88,4.69-2.66-1.04-5.67-.97-8.25.26-.79.38-1.5.79-1.17,1.8.1.29,4.27,2.28,3.63,2.85-.65.03-1.3.13-1.94.26-19.23,3.94-33.34,14.42-41.61,32.44-11.47,24.99-4.38,55.83,17.46,72.53,1.73,1.32,3.72,2.33,5.38,3.74-1.43-.14-5.81,1.5-6.83,1.14-.55-.19-2.77-2.06-3.38-2.56C1.9,198.85.75,152.84,28.04,126.57c3.92-14.05,9.56-27.42,17.48-39.68C82.09,30.25,154.96,8.54,216.9,36.91c13.04,5.97,24.89,14.21,35.67,23.61,4.75-3.44,8.85-7.81,13.95-10.75l4.03-1.32c.19-1.1-.64-1.11-1.22-1.66-2.15-2.02-4.15-4.04-6.39-5.98-59.53-51.75-149.15-51.01-207.8,1.75C-4.49,96.17-15.49,186.11,32.11,251.53c37.08,50.97,100.03,76.14,162.32,62.18,56.05-12.56,101.49-56.02,117.41-111.06.6-2.09,1.19-4.26,1.7-6.37.06-.23-.03-.35-.25-.25-.65.29-2.02,1.76-2.84,2.25-1.84,1.11-4.2,1.59-6.31,1.94-1.22.2-6.74.55-7.27,1.15-2.94,8.21-5.16,16.77-9.37,24.45l-4.83-1.27c.87-1.41,1.63-2.83,2.31-4.36,3.28-7.34,5.28-15.22,8.16-22.71.51-.68.97-.84,1.77-1.05,3.51-.9,7.76-.69,11.31-1.5,2.57-.59,4.1-3,5.47-5.05,1.34-2,4.97-7.42,5.19-9.55.2-1.9-1.87-9.24-2.77-11.09-.16-.33-.55-.59-.66-.92ZM247.68,76.63c.58-.52,1.13-1.77,2.18-1.45,8.43,3.28,16.75,7.12,23.96,12.64l6.12,5.02c.3.66-.26,2.58-.27,3.42,0,.47.47,1.38.02,1.67-.28-.91-1.56-1.03-2.41-1.53-1.69-.99-3.3-2.24-4.98-3.28-7.78-4.77-15.88-9.07-24.34-12.72-1-.43-2.22-.6-3.19-1.16.84-1.02,1.95-1.74,2.92-2.61ZM242.48,99.78c1.38-.24,2.31-1.11,3.46-1.63,3.2-1.45,6.71-1.29,8.99,1.61,1.18,1.5,1.12,2.88-1.1,1.98-.39-.16-.52-.54-.86-.72-.63-.34-2.56-1.51-2.93-.34-.37,1.18.62,1.72-.46,3.49-.52.85-1.55,1.17-2.56.87-.95-.28-1.72-1.78-1.75-2.72-.23-.23-2.38.36-2.89.36-1.2,0-3.14-.57-2.64-2.13.46-1.42,1.75-.59,2.73-.77ZM251.6,220.59l-11.93-.88c-.22-.17,2.49-2.6,2.7-2.82.81-.87,1.78-1.97,2.56-2.88.28-.32,1.58-2.63,2.1-2.19l4.57,8.77ZM215.63,101.01c1.22-.42,2.4.32,3.59.43,2.36.21,9.79-1.64,11.58-3.16,1.59-1.35.9-3.33,1.79-5.04.13-.25,1.2-1.32,1.47-1.52,2.19-1.66,4.3-.86,6.83-.98l-3.01,1.64c-1.13.9-2.12,1.82-2.52,3.27-.15.56-.13,1.67-.31,2.07-.02.05-.23.07-.3.17-.7,1.09-1.35,1.28-2.49,1.86-2.87,1.46-8.93,3.54-12.07,4.07-1,.17-1.9-.08-2.86.3-1.86.74-2.78,2.67-3.66,4.33-.78.02-.83-1-1.73-.86.53-1.44,2.27-6.08,3.69-6.57ZM226.07,105.98c.06,1.39-2.67,1.68-3.55,2.09-.41.19-2.43,2.11-2.47.87-.01-.27.38-1.66.53-1.94.1-.2.33-.23.43-.36.13-.18.07-.38.34-.62.16-.15,2.81-1.57,2.98-1.6.99-.13,1.7.58,1.74,1.56ZM203.64,116.07c.76.24,1.84.58,2.73.86.91.29,1.74,1.01,2.77.83.01,1.8.2,4.78,1.07,6.37,1.58,2.9,7.68,6.41,10.95,6.45,2.45.03,4.87-1.43,7.56-1.1,3.46.43,5.2,1.63,5.64,5.25.7,5.86-3.29,12.33-7.49,16.1-.55.49-2.43,2.09-3,2.28-.41.14-.56-.02-.91-.13-1.49-.48-3.03-1.52-4.6-2.07-4.59-1.61-8.92-1.43-13.65-.56-2.31-1.47-4.65-2.88-7.23-3.83-3.62-1.34-7.46-1.8-11.25-2.44-.14-2.07-.09-4.17-.25-6.24-.35-4.34-1.8-10.75-.51-14.91.72-2.33,3.33-2.09,5.16-3.61,1.02-.84,2.1-2.81,3.01-3.31.76-.41,2.51-.78,3.44-1.09.15-.05.14-.3.26-.33,1.11-.26,4.98,1.05,6.31,1.46ZM165.2,95.45c-.56-.3-.85-.98-1.51-1.03v-.25c.49-1.52.93-3.19,1.72-4.6.74-1.32,1.26-2.09,2.87-1.41,1.12.76,3.72,1.02,4.62,1.88,1.1,1.05.27,5.14,3.55,5.22,1.16.03,1.69-1.17,2.67-1.53.35,1.43-.28,2.68.7,3.95.63.82,1.52,1.11,2.49.74.15-.06,1.22-.64,1.31-.71.25-.2,1.35-1.93,1.81-1.52-.25,5.94,3.42,5.09,6.92,2.25,3.67-.36,5.29,3.51,6.42,6.35-.16.17-1.36-.96-1.63-1.09-2.71-1.35-6.26.54-8.79-1.04-.2-.13-.24-.39-.51-.55-1.61-.98-2.35-.63-3.49.71-1.96-.03-4-.98-5.85-1.7-4.47-1.75-8.84-3.87-13.31-5.64ZM78.14,176.72c4.58,3.96,8.73.08,13.16-1.59,1.68-.63,3.42-1.09,5.18-1.4-.64,2.69-1.75,5.28-2.23,8.03-.52,3.01-.04,5.83-.39,8.56-.04.31-.06.38-.26.62-.52.65-4.24,2.75-5.19,3.24-17.37,8.86-39.55,2.87-46.51-16.14-5.67-15.48,1.67-32.7,16.09-40.07,3.64-1.86,7.78-3.32,11.8-4.05.26,1.38.29,2.8.66,4.16.79,2.83,2.88,4.67,3.62,7.61.87,3.42,1.12,7.76,1,11.29-.21,6.31-2.41,15.02,3.06,19.74ZM20.84,174.52c-.12,2.97.13,5.98,0,8.96,0,.21.13.65-.17.61-.83-4.71-1.6-9.32-1.41-14.13.58-14.84,6.75-29.6,18.35-39.03,10.69-8.69,25.14-12.5,38.79-12.8.25,0,.49-.01.69-.18l.08.35c-5.8,1.07-11.6,2.29-17.19,4.13-22.7,7.46-38.13,28-39.14,52.11ZM37.73,181.33c-.04-.14-.12-.59.14-.31.8,1.83,1.64,3.66,2.73,5.34,13.59,20.76,41.57,21.54,59.39,5.54,8.54-7.67,12.52-18.24,20.26-26.59,23.65-25.54,63.28-22.4,85.02,3.79,1.35,1.62,2.55,3.61,3.95,5.17.5.55,1.32,1.69,2.03.93.39-1.62-1.78-5.82-2.67-7.31-.28-.47-3.34-4.5-3.12-4.68,6.52-.4,13.06-1.63,18.83-4.77,4.74-2.58,8.58-6.27,11.32-10.97,2.43-4.18,4.04-9.02,3.37-13.92,1.9.79,3.87,1.44,5.79,2.2,1.03.4,2.02,1.02,3.17,1.39.9.29,1.7.69,2.62.45-.83,10.2-5.19,19.93-11.59,27.81-4.48,5.51-12.03,11.71-18.63,14.36-6.72,2.7-11.34.87-16-4.29-4.25-4.71-7.4-8.67-12.76-12.34-22.25-15.25-50.39-13.01-68.86,6.91-7.1,7.66-11.33,17.32-18.86,24.48-16.06,15.28-41.01,18.71-57.49,2.11-3.87-3.9-7.27-9.97-8.63-15.32ZM141.29,180.77c-10.52-1.44-14.49,3.68-19.06,12.14-5.52,10.24-10.27,30.98-20.81,36.4-4.09,2.1-10.45,3.46-15.04,3.73-5.09.3-8-.91-13.12,1.1-2.08.81-3.81,2.04-5.74,3.12-.14-.15.89-1.46,1.06-1.66,6.36-7.59,14.79-4.78,23.37-6.99,8.63-2.22,11.94-5.51,15.67-13.29,4.98-10.38,10.93-32.47,21.73-37.58,11.32-5.36,28.23,2.39,36.86,10.14,4.34,3.9,8.01,8.85,10.15,14.33.07.17.29.53.05.65-1.79-2-3.41-4.19-5.26-6.14-7.55-7.92-18.89-14.44-29.85-15.95ZM156.49,232.69c-4.31-.26-8.3-1.27-12.14-3.21-2.22-1.12-4.53-2.83-6.19-4.69-.5-.55-.75-1.33-1.43-1.74-2.86,1.75-6.01,3.09-9.36,3.49l6.42-5.69,4.2-4.48c1.32,2.47,2.71,5.17,4.54,7.3,2.43,2.84,6.31,5.63,9.7,7.23l4.27,1.78ZM242.18,253.59l-17.71-3.7c-1.78-.03-2.51,2.26-3.59,3.34-.05-.81.23-1.64.48-2.42.5-1.57,2.15-4.94,4.02-5.07,6.52.95,12.87,2.85,19.37,3.98-1.04,1.19-1.97,2.4-2.57,3.87ZM259.68,251.56c-.22.22-1.38,1.5-1.59,1.31-.46-1.78-1.23-3.59-2.75-4.71-2.36-1.73-6.19-1.91-9.04-2.54-5.42-1.18-10.82-2.44-16.26-3.48l-.04-17.95c-.04-1.36-.98-2.64-1.34-3.75-.48-1.48.11-2.21-1.39-3.52-3.67-3.23-18.52-3.17-22.25-.02-.55.47-1.03,1.07-1.2,1.78-.14.57.03.95-.06,1.34-.28,1.25-1.33,2.76-1.56,4.41-.12.82.05,4.64-.24,4.85-1.18.15-2.38.28-3.56.48-2.87.49-8.04,1.14-10.59,2.04-1.36.48-2.14,1.67-2.68,2.93-1.85,4.28-1.14,11.92.59,16.2,2.84,7.02,7.44,4.42,13.36,3.54,1.03-.15,2.07-.29,3.1-.39.52,1.07.61,2.1,1.27,3.15,2.43,3.88,8.98,4.02,13.06,4.14.74,1.53,1.59,3.52,2.99,4.55,3.34,2.47,13.22,3.13,17.65,4.63.22.07.44.05.58.29-5.65,4.05-11.68,7.6-17.92,10.68-56.52,27.92-125.45,12.66-164.82-36.06-1.9-2.35-5.91-7.19-7.13-9.71-.1-.21-.22-.36-.16-.63l15.26,1.76c-.54,1.56-1.64,3.37-1.39,5.16.38,2.81,5.23.11,5.78.63-.17,1.17-.75,2.34-1,3.47-.31,1.45-.68,4.83.46,5.92,1.22,1.17,4.02-1.24,5.23-1.81.47-.22,2.18-.92,2.59-.92h2.54c-.41,1.89-1.26,8.65,2,8.42,1.37-.1,3.13-2.45,4.49-3.07,1.95-.89,4.85-.76,7.07-1.53,2.61-.9,4.34-2.73,6.68-4.03,7-3.87,15.38-3.05,21.41-8.33,4.25-.42,8.72.04,13.01.12,3.16.06,6.34.13,9.48.18,12.73.19,25.43.1,38.17,0,.17-2.2.17-4.2.75-6.36.85-3.18,2.86-6.31,6.13-7.38,3.43-1.13,7.8-1.21,11.37-2.06.02-2.97.95-6.73,2.25-9.42,1.4-2.89,4.41-4.29,7.4-5.06,6.24-1.61,20.94-1.91,24.64,4.5.64,1.1,2.56,6.97,2.56,8.14v15.35l37.38-2.63c-3.74,5.3-7.69,10.77-12.28,15.36ZM212.82,222.52c-.44.4-1.93,2.01-1.93,2.54v31.32c-1.15.11-3.75-1.02-4.12-2.11l-.08-29.19,1.05-3.42,5.07.86ZM202.11,233.4v4.04l-7.78,1.39c-.55-.17-1.05-3.15-1.52-3.75l9.3-1.67ZM142.28,259.1c-4.79-1.11-9.77-1.71-14.6-2.59-4.06-.74-8.1-1.76-12.18-2.38-2.78-.42-4.6-.82-7.35.15-7.18,2.53-8.97,15.45-6.58,21.68.9,2.34,2.44,3.6,4.8,4.32,8.21,1.59,16.41,3.36,24.64,4.84,3.73.67,9.73,2.39,12.93.05,5.66-4.14,7.55-19.36,2.31-24.33-.96-.91-2.7-1.43-3.97-1.73ZM134.83,266.5l-28-4.94c.98-1.62,2.02-4.11,4.31-3.78l25.7,4.75-2.01,3.98ZM309.55,110.25c-2.99-8.93-7.14-18.45-11.8-26.63-.78-1.37-2.27-4.24-3.22-5.29-.12-.14-1.21-1.04-1.34-.94l-.48,1.37-3.01,20.62c4.71,4.57,9.77,9.01,13.35,14.57,2.3,3.57,3.99,7.48,2.54,11.76-.18.54-.4.34-.48.74.16.31,1.16.31,1.63.48,2.82,1.01,3.82,3.86,3.05,6.66-.22.8-.88,1.77-1.09,2.59-.87,3.39,2.03,5.85,3.29,8.67,1.87,4.2,1.79,9.03-.38,13.1,2.71.66,4.4,2.28,5.57,4.71.12.24-.11.48.39.38.27-17.82-2.37-35.9-8.02-52.78ZM299.16,139.26c-.87,6.25,4.96,9.41,5.03,15.01.02,1.67-.49,3.17-.99,4.73,5.17-1.94,6.32-7.15,4.34-11.98-.76-1.85-2.13-3.34-2.92-5.16-1.52-3.53-1.03-6.8.85-10.06-3.13.05-5.93,4.72-6.31,7.46Z"/></svg>